<?xml version="1.0" encoding="UTF-8" standalone="no"?>
<!DOCTYPE svg PUBLIC "-//W3C//DTD SVG 1.1//EN"
 "http://www.w3.org/Graphics/SVG/1.1/DTD/svg11.dtd">
<!-- Generated by graphviz version 2.38.0 (20140413.2041)
 -->
<!-- Title: controllers_diagram Pages: 1 -->
<svg width="435pt" height="453pt"
 viewBox="0.00 0.00 435.49 453.00" xmlns="http://www.w3.org/2000/svg" xmlns:xlink="http://www.w3.org/1999/xlink">
<g id="graph0" class="graph" transform="scale(1 1) rotate(0) translate(106.045 330.5)">
<title>controllers_diagram</title>
<polygon fill="none" stroke="none" points="-106.045,122.5 -106.045,-330.5 329.45,-330.5 329.45,122.5 -106.045,122.5"/>
<!-- _diagram_info -->
<g id="node1" class="node"><title>_diagram_info</title>
<text text-anchor="start" x="126.55" y="59.9" font-family="Times,serif" font-size="13.00">Controllers diagram</text>
<text text-anchor="start" x="126.55" y="72.9" font-family="Times,serif" font-size="13.00">Date: Dec 06 2017 &#45; 22:34</text>
<text text-anchor="start" x="126.55" y="85.9" font-family="Times,serif" font-size="13.00">Migration version: 20171120175122</text>
<text text-anchor="start" x="126.55" y="98.9" font-family="Times,serif" font-size="13.00">Generated by RailRoady 1.5.3</text>
<text text-anchor="start" x="126.55" y="111.9" font-family="Times,serif" font-size="13.00">http://railroady.prestonlee.com</text>
</g>
<!-- ApplicationController -->
<g id="node2" class="node"><title>ApplicationController</title>
<path fill="none" stroke="black" d="M-55.8208,-103C-55.8208,-103 59.8208,-103 59.8208,-103 65.8208,-103 71.8208,-109 71.8208,-115 71.8208,-115 71.8208,-183 71.8208,-183 71.8208,-189 65.8208,-195 59.8208,-195 59.8208,-195 -55.8208,-195 -55.8208,-195 -61.8208,-195 -67.8208,-189 -67.8208,-183 -67.8208,-183 -67.8208,-115 -67.8208,-115 -67.8208,-109 -61.8208,-103 -55.8208,-103"/>
<text text-anchor="middle" x="2" y="-179.8" font-family="Times,serif" font-size="14.00">ApplicationController</text>
<polyline fill="none" stroke="black" points="-67.8208,-173 71.8208,-173 "/>
<polyline fill="none" stroke="black" points="-67.8208,-149 71.8208,-149 "/>
<polyline fill="none" stroke="black" points="-67.8208,-125 71.8208,-125 "/>
<text text-anchor="start" x="-59.8208" y="-109.8" font-family="Times,serif" font-size="14.00">_layout</text>
</g>
<!-- ExpensesController -->
<g id="node3" class="node"><title>ExpensesController</title>
<path fill="none" stroke="black" d="M-39.2104,-222C-39.2104,-222 63.2104,-222 63.2104,-222 69.2104,-222 75.2104,-228 75.2104,-234 75.2104,-234 75.2104,-314 75.2104,-314 75.2104,-320 69.2104,-326 63.2104,-326 63.2104,-326 -39.2104,-326 -39.2104,-326 -45.2104,-326 -51.2104,-320 -51.2104,-314 -51.2104,-314 -51.2104,-234 -51.2104,-234 -51.2104,-228 -45.2104,-222 -39.2104,-222"/>
<text text-anchor="middle" x="12" y="-310.8" font-family="Times,serif" font-size="14.00">ExpensesController</text>
<polyline fill="none" stroke="black" points="-51.2104,-304 75.2104,-304 "/>
<text text-anchor="start" x="-43.2104" y="-288.8" font-family="Times,serif" font-size="14.00">index</text>
<text text-anchor="start" x="-43.2104" y="-274.8" font-family="Times,serif" font-size="14.00">show</text>
<polyline fill="none" stroke="black" points="-51.2104,-268 75.2104,-268 "/>
<polyline fill="none" stroke="black" points="-51.2104,-244 75.2104,-244 "/>
<text text-anchor="start" x="-43.2104" y="-228.8" font-family="Times,serif" font-size="14.00">_layout</text>
</g>
<!-- Api::V1::ExpensesController -->
<g id="node4" class="node"><title>Api::V1::ExpensesController</title>
<path fill="none" stroke="black" d="M-90.0449,84C-90.0449,84 66.0449,84 66.0449,84 72.0449,84 78.0449,78 78.0449,72 78.0449,72 78.0449,-64 78.0449,-64 78.0449,-70 72.0449,-76 66.0449,-76 66.0449,-76 -90.0449,-76 -90.0449,-76 -96.0449,-76 -102.045,-70 -102.045,-64 -102.045,-64 -102.045,72 -102.045,72 -102.045,78 -96.0449,84 -90.0449,84"/>
<text text-anchor="middle" x="-12" y="-60.8" font-family="Times,serif" font-size="14.00">Api::V1::ExpensesController</text>
<polyline fill="none" stroke="black" points="-102.045,-54 78.0449,-54 "/>
<text text-anchor="start" x="-94.0449" y="-38.8" font-family="Times,serif" font-size="14.00">create</text>
<text text-anchor="start" x="-94.0449" y="-24.8" font-family="Times,serif" font-size="14.00">destroy</text>
<text text-anchor="start" x="-94.0449" y="-10.8" font-family="Times,serif" font-size="14.00">index</text>
<text text-anchor="start" x="-94.0449" y="3.2" font-family="Times,serif" font-size="14.00">update</text>
<polyline fill="none" stroke="black" points="-102.045,10 78.0449,10 "/>
<polyline fill="none" stroke="black" points="-102.045,34 78.0449,34 "/>
<text text-anchor="start" x="-94.0449" y="49.2" font-family="Times,serif" font-size="14.00">_layout</text>
<text text-anchor="start" x="-94.0449" y="63.2" font-family="Times,serif" font-size="14.00">expenses_params</text>
<text text-anchor="start" x="-94.0449" y="77.2" font-family="Times,serif" font-size="14.00">set_expense</text>
</g>
<!-- DashboardController -->
<g id="node5" class="node"><title>DashboardController</title>
<path fill="none" stroke="black" d="M113.796,-103C113.796,-103 230.204,-103 230.204,-103 236.204,-103 242.204,-109 242.204,-115 242.204,-115 242.204,-279 242.204,-279 242.204,-285 236.204,-291 230.204,-291 230.204,-291 113.796,-291 113.796,-291 107.796,-291 101.796,-285 101.796,-279 101.796,-279 101.796,-115 101.796,-115 101.796,-109 107.796,-103 113.796,-103"/>
<text text-anchor="middle" x="172" y="-275.8" font-family="Times,serif" font-size="14.00">DashboardController</text>
<polyline fill="none" stroke="black" points="101.796,-269 242.204,-269 "/>
<text text-anchor="start" x="109.796" y="-253.8" font-family="Times,serif" font-size="14.00">accumulated_monthly</text>
<text text-anchor="start" x="109.796" y="-239.8" font-family="Times,serif" font-size="14.00">by_category</text>
<text text-anchor="start" x="109.796" y="-225.8" font-family="Times,serif" font-size="14.00">by_type_monthly</text>
<text text-anchor="start" x="109.796" y="-211.8" font-family="Times,serif" font-size="14.00">index</text>
<text text-anchor="start" x="109.796" y="-197.8" font-family="Times,serif" font-size="14.00">last_6_months</text>
<polyline fill="none" stroke="black" points="101.796,-191 242.204,-191 "/>
<polyline fill="none" stroke="black" points="101.796,-167 242.204,-167 "/>
<text text-anchor="start" x="109.796" y="-151.8" font-family="Times,serif" font-size="14.00">_layout</text>
<text text-anchor="start" x="109.796" y="-137.8" font-family="Times,serif" font-size="14.00">colors</text>
<text text-anchor="start" x="109.796" y="-123.8" font-family="Times,serif" font-size="14.00">days_expenses</text>
<text text-anchor="start" x="109.796" y="-109.8" font-family="Times,serif" font-size="14.00">days_in_a_month</text>
</g>
</g>
</svg>
