<?xml version="1.0" encoding="UTF-8" standalone="no"?>
<!DOCTYPE svg PUBLIC "-//W3C//DTD SVG 1.1//EN"
 "http://www.w3.org/Graphics/SVG/1.1/DTD/svg11.dtd">
<!-- Generated by graphviz version 2.38.0 (20140413.2041)
 -->
<!-- Title: models_diagram Pages: 1 -->
<svg width="919pt" height="274pt"
 viewBox="0.00 0.00 918.85 274.00" xmlns="http://www.w3.org/2000/svg" xmlns:xlink="http://www.w3.org/1999/xlink">
<g id="graph0" class="graph" transform="scale(1 1) rotate(0) translate(4 270)">
<title>models_diagram</title>
<polygon fill="none" stroke="none" points="-4,4 -4,-270 914.845,-270 914.845,4 -4,4"/>
<!-- _diagram_info -->
<g id="node1" class="node"><title>_diagram_info</title>
<text text-anchor="start" x="8" y="-244.6" font-family="Times,serif" font-size="13.00">Models diagram</text>
<text text-anchor="start" x="8" y="-231.6" font-family="Times,serif" font-size="13.00">Date: Dec 06 2017 &#45; 22:34</text>
<text text-anchor="start" x="8" y="-218.6" font-family="Times,serif" font-size="13.00">Migration version: 20171120175122</text>
<text text-anchor="start" x="8" y="-205.6" font-family="Times,serif" font-size="13.00">Generated by RailRoady 1.5.3</text>
<text text-anchor="start" x="8" y="-192.6" font-family="Times,serif" font-size="13.00">http://railroady.prestonlee.com</text>
</g>
<!-- Category -->
<g id="node2" class="node"><title>Category</title>
<path fill="none" stroke="black" d="M236.587,-179.5C236.587,-179.5 460.312,-179.5 460.312,-179.5 466.312,-179.5 472.312,-185.5 472.312,-191.5 472.312,-191.5 472.312,-253.5 472.312,-253.5 472.312,-259.5 466.312,-265.5 460.312,-265.5 460.312,-265.5 236.587,-265.5 236.587,-265.5 230.587,-265.5 224.587,-259.5 224.587,-253.5 224.587,-253.5 224.587,-191.5 224.587,-191.5 224.587,-185.5 230.587,-179.5 236.587,-179.5"/>
<text text-anchor="middle" x="348.45" y="-250.3" font-family="Times,serif" font-size="14.00">Category</text>
<polyline fill="none" stroke="black" points="224.587,-243.5 472.312,-243.5 "/>
<text text-anchor="start" x="232.587" y="-228.3" font-family="Times,serif" font-size="14.00">id :bigint</text>
<text text-anchor="start" x="232.587" y="-214.3" font-family="Times,serif" font-size="14.00">name :character varying</text>
<text text-anchor="start" x="232.587" y="-200.3" font-family="Times,serif" font-size="14.00">created_at :timestamp without time zone</text>
<text text-anchor="start" x="232.587" y="-186.3" font-family="Times,serif" font-size="14.00">updated_at :timestamp without time zone</text>
</g>
<!-- Expense -->
<g id="node5" class="node"><title>Expense</title>
<path fill="none" stroke="black" d="M369.587,-0.5C369.587,-0.5 593.312,-0.5 593.312,-0.5 599.312,-0.5 605.312,-6.5 605.312,-12.5 605.312,-12.5 605.312,-130.5 605.312,-130.5 605.312,-136.5 599.312,-142.5 593.312,-142.5 593.312,-142.5 369.587,-142.5 369.587,-142.5 363.587,-142.5 357.587,-136.5 357.587,-130.5 357.587,-130.5 357.587,-12.5 357.587,-12.5 357.587,-6.5 363.587,-0.5 369.587,-0.5"/>
<text text-anchor="middle" x="481.45" y="-127.3" font-family="Times,serif" font-size="14.00">Expense</text>
<polyline fill="none" stroke="black" points="357.587,-120.5 605.312,-120.5 "/>
<text text-anchor="start" x="365.587" y="-105.3" font-family="Times,serif" font-size="14.00">updated_at :timestamp without time zone</text>
<text text-anchor="start" x="365.587" y="-91.3" font-family="Times,serif" font-size="14.00">concept :character varying</text>
<text text-anchor="start" x="365.587" y="-77.3" font-family="Times,serif" font-size="14.00">date :date</text>
<text text-anchor="start" x="365.587" y="-63.3" font-family="Times,serif" font-size="14.00">amount :numeric</text>
<text text-anchor="start" x="365.587" y="-49.3" font-family="Times,serif" font-size="14.00">category_id :bigint</text>
<text text-anchor="start" x="365.587" y="-35.3" font-family="Times,serif" font-size="14.00">transaction_type_id :bigint</text>
<text text-anchor="start" x="365.587" y="-21.3" font-family="Times,serif" font-size="14.00">created_at :timestamp without time zone</text>
<text text-anchor="start" x="365.587" y="-7.3" font-family="Times,serif" font-size="14.00">id :bigint</text>
</g>
<!-- Category&#45;&gt;Expense -->
<g id="edge1" class="edge"><title>Category&#45;&gt;Expense</title>
<path fill="none" stroke="#787d70" d="M391.566,-173.197C398.126,-165.848 405.033,-158.109 411.984,-150.322"/>
<ellipse fill="none" stroke="#787d70" cx="388.87" cy="-176.217" rx="4.00002" ry="4.00002"/>
<polygon fill="#787d70" stroke="#787d70" points="412.279,-149.992 422.296,-145.528 415.609,-146.262 418.938,-142.531 418.938,-142.531 418.938,-142.531 415.609,-146.262 415.581,-139.535 412.279,-149.992 412.279,-149.992"/>
</g>
<!-- TransactionType -->
<g id="node3" class="node"><title>TransactionType</title>
<path fill="none" stroke="black" d="M502.587,-179.5C502.587,-179.5 726.312,-179.5 726.312,-179.5 732.312,-179.5 738.312,-185.5 738.312,-191.5 738.312,-191.5 738.312,-253.5 738.312,-253.5 738.312,-259.5 732.312,-265.5 726.312,-265.5 726.312,-265.5 502.587,-265.5 502.587,-265.5 496.587,-265.5 490.587,-259.5 490.587,-253.5 490.587,-253.5 490.587,-191.5 490.587,-191.5 490.587,-185.5 496.587,-179.5 502.587,-179.5"/>
<text text-anchor="middle" x="614.45" y="-250.3" font-family="Times,serif" font-size="14.00">TransactionType</text>
<polyline fill="none" stroke="black" points="490.587,-243.5 738.312,-243.5 "/>
<text text-anchor="start" x="498.587" y="-228.3" font-family="Times,serif" font-size="14.00">id :bigint</text>
<text text-anchor="start" x="498.587" y="-214.3" font-family="Times,serif" font-size="14.00">name :character varying</text>
<text text-anchor="start" x="498.587" y="-200.3" font-family="Times,serif" font-size="14.00">created_at :timestamp without time zone</text>
<text text-anchor="start" x="498.587" y="-186.3" font-family="Times,serif" font-size="14.00">updated_at :timestamp without time zone</text>
</g>
<!-- TransactionType&#45;&gt;Expense -->
<g id="edge2" class="edge"><title>TransactionType&#45;&gt;Expense</title>
<path fill="none" stroke="#8ceb14" d="M571.334,-173.197C564.774,-165.848 557.866,-158.109 550.915,-150.322"/>
<ellipse fill="none" stroke="#8ceb14" cx="574.029" cy="-176.217" rx="4.00002" ry="4.00002"/>
<polygon fill="#8ceb14" stroke="#8ceb14" points="550.62,-149.992 547.318,-139.535 547.291,-146.262 543.961,-142.531 543.961,-142.531 543.961,-142.531 547.291,-146.262 540.604,-145.528 550.62,-149.992 550.62,-149.992"/>
</g>
<!-- ApplicationRecord -->
<g id="node4" class="node"><title>ApplicationRecord</title>
<ellipse fill="none" stroke="black" cx="833.45" cy="-222.5" rx="77.2916" ry="18"/>
<text text-anchor="middle" x="833.45" y="-218.3" font-family="Times,serif" font-size="14.00">ApplicationRecord</text>
</g>
</g>
</svg>
